<svg width="48" height="46" viewBox="0 0 48 46" fill="none" xmlns="http://www.w3.org/2000/svg">
<path fill-rule="evenodd" clip-rule="evenodd" d="M24 45.0593C37.2548 45.0593 48 34.9724 48 22.5296C48 10.0869 37.2548 0 24 0C10.7452 0 0 10.0869 0 22.5296C0 34.9724 10.7452 45.0593 24 45.0593ZM25.6469 11.722C24.4392 11.7536 23.1648 12.0265 22.2646 12.8294C21.5212 13.4749 21.1467 14.4145 21.0625 15.3536C21.0369 16.0254 21.0405 16.6989 21.0442 17.3721C21.0469 17.877 21.0497 18.3817 21.0401 18.8855C20.7095 18.8878 20.3778 18.8871 20.046 18.8865C19.6036 18.8856 19.1609 18.8847 18.72 18.8908C18.72 19.2928 18.7206 19.6953 18.7212 20.0982C18.7225 20.9052 18.7237 21.7137 18.72 22.5224C19.1609 22.5284 19.6036 22.5276 20.0461 22.5267C20.3779 22.526 20.7095 22.5254 21.0401 22.5276C21.0475 24.1302 21.0462 25.7326 21.0448 27.335C21.0431 29.338 21.0413 31.3409 21.0569 33.3438C21.9642 33.3378 22.8696 33.3387 23.7753 33.3396C24.4546 33.3402 25.134 33.3408 25.8145 33.3386C25.8201 31.5358 25.8187 29.7345 25.8173 27.9331C25.8159 26.1317 25.8145 24.3303 25.8201 22.5276C26.2777 22.5254 26.7353 22.526 27.1929 22.5267C27.8031 22.5276 28.4133 22.5284 29.0235 22.5224C29.2136 21.3152 29.3756 20.0976 29.465 18.875C28.8613 18.8723 28.2576 18.8723 27.6538 18.8723C27.05 18.8723 26.4462 18.8723 25.8425 18.8697C25.8425 18.6584 25.8422 18.4471 25.8419 18.2359C25.8408 17.6022 25.8397 16.9687 25.8481 16.3349C25.9432 15.8468 26.4797 15.4741 26.9998 15.5057H29.4706C29.4762 14.2409 29.4762 12.9815 29.4706 11.7167C29.1521 11.7167 28.8335 11.7164 28.5149 11.7161C27.559 11.7151 26.6029 11.7141 25.6469 11.722Z" fill="white"/>
</svg>
