<svg width="48" height="46" viewBox="0 0 48 46" fill="none" xmlns="http://www.w3.org/2000/svg">
<path fill-rule="evenodd" clip-rule="evenodd" d="M24 45.0593C37.2548 45.0593 48 34.9724 48 22.5296C48 10.0869 37.2548 0 24 0C10.7452 0 0 10.0869 0 22.5296C0 34.9724 10.7452 45.0593 24 45.0593ZM12 17.7497C12 14.1737 15.0992 11.2648 18.9081 11.2648H29.0919C32.9012 11.2648 36 14.1741 36 17.7497V27.3973C36 30.9728 32.9012 33.8821 29.0919 33.8821H18.9081C15.0988 33.8821 12 30.9728 12 27.3973V17.7497ZM17.7544 22.5321C17.7544 19.3235 20.565 16.7135 24.0191 16.7135C27.4731 16.7135 30.2837 19.3235 30.2837 22.5321C30.2837 25.7402 27.4731 28.3503 24.0191 28.3503C20.5646 28.3503 17.7544 25.7402 17.7544 22.5321ZM20.0363 22.5321C20.0363 24.5588 21.8228 26.2082 24.0191 26.2082C26.2153 26.2082 28.0019 24.5591 28.0019 22.5321C28.0019 20.5049 26.215 18.8559 24.0191 18.8559C21.8228 18.8559 20.0363 20.5049 20.0363 22.5321ZM30.3959 17.8595C31.21 17.8595 31.8699 17.2399 31.8699 16.4757C31.8699 15.7116 31.21 15.0921 30.3959 15.0921C29.5818 15.0921 28.9219 15.7116 28.9219 16.4757C28.9219 17.2399 29.5818 17.8595 30.3959 17.8595Z" fill="white"/>
</svg>
