<svg width="48" height="46" viewBox="0 0 48 46" fill="none" xmlns="http://www.w3.org/2000/svg">
<path fill-rule="evenodd" clip-rule="evenodd" d="M24 45.0593C37.2547 45.0593 48 34.9723 48 22.5296C48 10.087 37.2547 0 24 0C10.7453 0 0 10.087 0 22.5296C0 34.9723 10.7453 45.0593 24 45.0593ZM32.592 14.701C34.4342 14.8569 35.472 15.9154 35.6995 17.6019C35.8589 18.7789 36 20.4641 36 22.2768C36 25.4598 35.6995 27.3001 35.6995 27.3001C35.4173 28.9799 34.5523 29.8919 32.7331 30.0847C30.7003 30.301 26.1283 30.4001 24.097 30.4001C21.9946 30.4001 17.7432 30.3172 15.6202 30.1514C13.7962 30.0086 12.551 29.052 12.3005 27.3496C12.1181 26.1096 12 24.6361 12 22.2931C12 19.685 12.1003 18.5811 12.336 17.4028C12.6715 15.7212 13.5264 14.9065 15.479 14.7173C17.5277 14.5185 19.464 14.419 23.797 14.419C25.9152 14.419 30.4824 14.5217 32.592 14.701ZM21.4483 19.0993V25.5761L28.0176 22.3043L21.4483 19.0993Z" fill="white"/>
</svg>
