<svg width="30" height="34" viewBox="0 0 30 34" fill="none" xmlns="http://www.w3.org/2000/svg">
<path d="M15 20.3333C14.5278 20.3333 14.1317 20.1733 13.8117 19.8533C13.4917 19.5333 13.3322 19.1378 13.3333 18.6667C13.3333 18.1944 13.4933 17.7983 13.8133 17.4783C14.1333 17.1583 14.5289 16.9989 15 17C15.4722 17 15.8683 17.16 16.1883 17.48C16.5083 17.8 16.6678 18.1956 16.6667 18.6667C16.6667 19.1389 16.5067 19.535 16.1867 19.855C15.8667 20.175 15.4711 20.3344 15 20.3333ZM8.33334 20.3333C7.86111 20.3333 7.465 20.1733 7.145 19.8533C6.825 19.5333 6.66556 19.1378 6.66667 18.6667C6.66667 18.1944 6.82667 17.7983 7.14667 17.4783C7.46667 17.1583 7.86223 16.9989 8.33334 17C8.80556 17 9.20167 17.16 9.52167 17.48C9.84167 17.8 10.0011 18.1956 10 18.6667C10 19.1389 9.84 19.535 9.52 19.855C9.2 20.175 8.80445 20.3344 8.33334 20.3333ZM21.6667 20.3333C21.1944 20.3333 20.7983 20.1733 20.4783 19.8533C20.1583 19.5333 19.9989 19.1378 20 18.6667C20 18.1944 20.16 17.7983 20.48 17.4783C20.8 17.1583 21.1956 16.9989 21.6667 17C22.1389 17 22.535 17.16 22.855 17.48C23.175 17.8 23.3344 18.1956 23.3333 18.6667C23.3333 19.1389 23.1733 19.535 22.8533 19.855C22.5333 20.175 22.1378 20.3344 21.6667 20.3333ZM15 27C14.5278 27 14.1317 26.84 13.8117 26.52C13.4917 26.2 13.3322 25.8044 13.3333 25.3333C13.3333 24.8611 13.4933 24.465 13.8133 24.145C14.1333 23.825 14.5289 23.6656 15 23.6667C15.4722 23.6667 15.8683 23.8267 16.1883 24.1467C16.5083 24.4667 16.6678 24.8622 16.6667 25.3333C16.6667 25.8056 16.5067 26.2017 16.1867 26.5217C15.8667 26.8417 15.4711 27.0011 15 27ZM8.33334 27C7.86111 27 7.465 26.84 7.145 26.52C6.825 26.2 6.66556 25.8044 6.66667 25.3333C6.66667 24.8611 6.82667 24.465 7.14667 24.145C7.46667 23.825 7.86223 23.6656 8.33334 23.6667C8.80556 23.6667 9.20167 23.8267 9.52167 24.1467C9.84167 24.4667 10.0011 24.8622 10 25.3333C10 25.8056 9.84 26.2017 9.52 26.5217C9.2 26.8417 8.80445 27.0011 8.33334 27ZM21.6667 27C21.1944 27 20.7983 26.84 20.4783 26.52C20.1583 26.2 19.9989 25.8044 20 25.3333C20 24.8611 20.16 24.465 20.48 24.145C20.8 23.825 21.1956 23.6656 21.6667 23.6667C22.1389 23.6667 22.535 23.8267 22.855 24.1467C23.175 24.4667 23.3344 24.8622 23.3333 25.3333C23.3333 25.8056 23.1733 26.2017 22.8533 26.5217C22.5333 26.8417 22.1378 27.0011 21.6667 27ZM3.33334 33.6667C2.41667 33.6667 1.63167 33.34 0.978336 32.6867C0.325003 32.0333 -0.00110828 31.2489 2.82966e-06 30.3333V7C2.82966e-06 6.08334 0.32667 5.29834 0.980003 4.645C1.63334 3.99167 2.41778 3.66556 3.33334 3.66667H5V0.333336H8.33334V3.66667H21.6667V0.333336H25V3.66667H26.6667C27.5833 3.66667 28.3683 3.99334 29.0217 4.64667C29.675 5.3 30.0011 6.08445 30 7V30.3333C30 31.25 29.6733 32.035 29.02 32.6883C28.3667 33.3417 27.5822 33.6678 26.6667 33.6667H3.33334ZM3.33334 30.3333H26.6667V13.6667H3.33334V30.3333Z" fill="black"/>
</svg>
