<svg width="34" height="28" viewBox="0 0 34 28" fill="none" xmlns="http://www.w3.org/2000/svg">
<path d="M3.66659 27.3333C2.74992 27.3333 1.96547 27.0072 1.31325 26.355C0.659919 25.7017 0.333252 24.9167 0.333252 24V4C0.333252 3.08333 0.659919 2.29889 1.31325 1.64666C1.96547 0.993331 2.74992 0.666664 3.66659 0.666664H30.3333C31.2499 0.666664 32.0349 0.993331 32.6883 1.64666C33.3405 2.29889 33.6666 3.08333 33.6666 4V24C33.6666 24.9167 33.3405 25.7017 32.6883 26.355C32.0349 27.0072 31.2499 27.3333 30.3333 27.3333H3.66659ZM16.9999 15.6667L3.66659 7.33333V24H30.3333V7.33333L16.9999 15.6667ZM16.9999 12.3333L30.3333 4H3.66659L16.9999 12.3333ZM3.66659 7.33333V4V24V7.33333Z" fill="black"/>
</svg>
