<svg width="28" height="34" viewBox="0 0 28 34" fill="none" xmlns="http://www.w3.org/2000/svg">
<path d="M14.0001 17C14.9167 17 15.7017 16.6733 16.3551 16.02C17.0084 15.3667 17.3345 14.5822 17.3334 13.6667C17.3334 12.75 17.0067 11.965 16.3534 11.3117C15.7001 10.6583 14.9156 10.3322 14.0001 10.3333C13.0834 10.3333 12.2984 10.66 11.6451 11.3133C10.9917 11.9667 10.6656 12.7511 10.6667 13.6667C10.6667 14.5833 10.9934 15.3683 11.6467 16.0217C12.3001 16.675 13.0845 17.0011 14.0001 17ZM14.0001 33.6667C9.52786 29.8611 6.18786 26.3267 3.98008 23.0633C1.7723 19.8 0.667859 16.7789 0.666748 14C0.666748 9.83333 2.0073 6.51389 4.68841 4.04167C7.36953 1.56945 10.4734 0.333336 14.0001 0.333336C17.5279 0.333336 20.6323 1.56945 23.3134 4.04167C25.9945 6.51389 27.3345 9.83333 27.3334 14C27.3334 16.7778 26.229 19.7989 24.0201 23.0633C21.8112 26.3278 18.4712 29.8622 14.0001 33.6667Z" fill="black"/>
</svg>
