<svg width="30" height="30" viewBox="0 0 30 30" fill="none" xmlns="http://www.w3.org/2000/svg">
<path d="M1.75 30C1.25 30 0.833333 29.8333 0.5 29.5C0.166667 29.1667 0 28.75 0 28.25V21.5C0 21.1111 0.125 20.7706 0.375 20.4783C0.625 20.1861 0.944444 19.9989 1.33333 19.9167L7.08333 18.75C7.47222 18.6944 7.86833 18.7294 8.27167 18.855C8.675 18.9806 9.00111 19.1678 9.25 19.4167L13.1667 23.3333C15.2778 22.0556 17.2083 20.5417 18.9583 18.7917C20.7083 17.0417 22.1667 15.1667 23.3333 13.1667L19.3333 9.08333C19.0833 8.83333 18.9233 8.54833 18.8533 8.22833C18.7833 7.90833 18.7767 7.55444 18.8333 7.16667L19.9167 1.33333C19.9722 0.944444 20.1528 0.625 20.4583 0.375C20.7639 0.125 21.1111 0 21.5 0H28.25C28.75 0 29.1667 0.166667 29.5 0.5C29.8333 0.833333 30 1.25 30 1.75C30 5.33333 29.2011 8.82667 27.6033 12.23C26.0056 15.6333 23.8944 18.6472 21.27 21.2717C18.6456 23.8961 15.6317 26.0072 12.2283 27.605C8.825 29.2028 5.33222 30.0011 1.75 30Z" fill="black"/>
</svg>
